<?xml version="1.0" standalone="no"?>
<!DOCTYPE svg PUBLIC "-//W3C//DTD SVG 20010904//EN"
 "http://www.w3.org/TR/2001/REC-SVG-20010904/DTD/svg10.dtd">
<svg version="1.0" xmlns="http://www.w3.org/2000/svg"
 width="528.000000pt" height="528.000000pt" viewBox="0 0 528.000000 528.000000"
 preserveAspectRatio="xMidYMid meet">
<metadata>
Created by potrace 1.14, written by Peter Selinger 2001-2017
</metadata>
<g transform="translate(0.000000,528.000000) scale(0.100000,-0.100000)"
fill="#000000" stroke="none">
<path d="M2185 4840 c-2 -3 -5 -231 -6 -505 -1 -311 -5 -508 -11 -524 -15 -38
-20 -48 -99 -241 -332 -810 -810 -1613 -1464 -2463 -200 -260 -191 -249 -174
-242 8 2 41 7 74 10 33 2 74 7 90 9 17 2 57 7 90 10 33 4 78 9 100 11 22 3
103 12 180 20 77 9 156 17 175 20 38 4 125 14 180 20 19 2 60 7 90 10 30 3 71
8 90 10 19 2 58 6 85 10 28 3 66 7 85 9 19 2 64 7 100 11 36 4 76 9 90 10 82
8 158 16 180 20 14 2 54 7 90 10 36 4 76 8 90 10 14 2 50 7 80 10 30 3 66 8
80 10 14 2 54 6 90 10 36 3 72 8 80 10 8 2 48 7 88 10 41 4 82 8 92 10 11 2
50 7 87 10 37 4 76 9 86 11 10 2 45 6 78 9 33 4 69 8 79 10 10 2 51 6 92 10
40 3 80 8 88 10 8 2 44 6 80 10 36 3 76 8 90 10 14 2 50 7 80 10 63 7 94 10
205 24 44 6 107 13 140 16 33 3 71 8 85 10 14 3 45 7 70 10 25 2 90 9 145 15
55 6 115 13 133 16 17 2 47 6 65 8 17 3 64 7 102 11 112 11 107 5 80 83 -181
528 -451 1094 -709 1487 -109 166 -261 373 -331 451 -5 6 -34 40 -64 75 -161
189 -449 449 -674 607 -155 110 -467 291 -489 285 -3 -1 -6 107 -6 240 0 133
-1 252 -1 263 -1 15 -9 23 -26 26 -14 3 -27 2 -30 -2z m89 -635 c1 -5 9 -30
16 -55 14 -48 15 -51 24 -90 3 -14 14 -63 26 -110 57 -231 101 -516 127 -825
15 -186 8 -782 -12 -930 -2 -16 -7 -59 -10 -95 -3 -36 -7 -76 -10 -90 -3 -14
-7 -41 -9 -60 -12 -89 -40 -259 -61 -362 -3 -16 -7 -38 -9 -50 -2 -13 -9 -43
-15 -68 -5 -25 -13 -60 -16 -79 -3 -19 -8 -38 -11 -43 -3 -4 -7 -16 -9 -25
-12 -64 -49 -210 -55 -222 -4 -7 -7 710 -7 1595 0 1646 0 1628 31 1509z"/>
<path d="M4995 1254 c-49 -7 -118 -16 -152 -19 -34 -3 -70 -7 -80 -9 -16 -4
-101 -14 -178 -21 -16 -2 -52 -6 -80 -10 -106 -13 -202 -25 -245 -30 -25 -3
-61 -7 -80 -10 -54 -7 -199 -24 -260 -30 -30 -3 -73 -8 -95 -11 -77 -11 -91
-13 -150 -19 -33 -3 -109 -12 -170 -20 -60 -8 -132 -17 -160 -20 -72 -8 -115
-13 -250 -30 -66 -8 -140 -17 -165 -20 -80 -8 -132 -14 -169 -19 -20 -3 -61
-8 -91 -11 -30 -3 -71 -8 -90 -10 -62 -8 -114 -15 -160 -20 -81 -10 -134 -16
-215 -26 -115 -14 -143 -17 -205 -24 -30 -4 -66 -8 -80 -10 -14 -2 -47 -6 -75
-9 -27 -3 -142 -17 -255 -31 -250 -30 -282 -34 -345 -40 -27 -3 -61 -8 -75
-10 -14 -2 -52 -7 -85 -10 -33 -3 -67 -8 -75 -10 -8 -2 -44 -6 -80 -10 -36 -4
-76 -8 -90 -10 -14 -1 -54 -6 -90 -9 -36 -4 -76 -9 -90 -11 -14 -3 -50 -7 -80
-10 -30 -3 -66 -8 -80 -10 -14 -2 -50 -7 -80 -10 -30 -3 -66 -7 -80 -10 -14
-2 -52 -6 -85 -10 -33 -3 -69 -8 -80 -10 -11 -2 -23 -4 -27 -4 -5 -1 118 -325
130 -341 6 -8 3893 -6 3898 1 2 4 23 17 46 29 24 12 86 50 138 83 329 211 574
446 674 646 47 95 71 161 60 170 -5 4 -49 2 -99 -5z"/>
</g>
</svg>
